# xmcd
#
# Track frame offsets:
#	150
#	13308
#	26105
#	41450
#	54923
#	68143
#	77504
#	86753
#	99565
#	112517
#	124147
#	133841
#	152582
#	167902
#	178376
#
# Disc length: 2519 seconds
# Revision: 1
# Processed by: cddbd v1.5.2PL0 Copyright (c) Steve Scherf et al.
# Submitted via: dBpowerAMP V12.0
#
DISCID=c109d50f
DTITLE=The Central Valley Boys - God Gave You To Me
DYEAR=2018
DGENRE=Bluegrass
TTITLE0=Happy Sunshine of Life
TTITLE1=I'll Be There
TTITLE2=Little Darling Pal of Mine
TTITLE3=Sea of Regret
TTITLE4=Charming Betsy
TTITLE5=My Lord Will Set Me Free
TTITLE6=Shout and Shine
TTITLE7=God Gave You To Me
TTITLE8=Red River Valley
TTITLE9=Old Rattler
TTITLE10=Pike Country Breakdown
TTITLE11=I Cried Again
TTITLE12=Live and Let Live
TTITLE13=Let the Church Roll On
TTITLE14=You're Gonna Miss Me
EXTD=
EXTT0=
EXTT1=
EXTT2=
EXTT3=
EXTT4=
EXTT5=
EXTT6=
EXTT7=
EXTT8=
EXTT9=
EXTT10=
EXTT11=
EXTT12=
EXTT13=
EXTT14=
PLAYORDER=
